<?xml version="1.0" standalone="no"?>
<!DOCTYPE svg PUBLIC "-//W3C//DTD SVG 20010904//EN"
 "http://www.w3.org/TR/2001/REC-SVG-20010904/DTD/svg10.dtd">
<svg version="1.0" xmlns="http://www.w3.org/2000/svg"
 width="260.000000pt" height="260.000000pt" viewBox="0 0 260.000000 260.000000"
 preserveAspectRatio="xMidYMid meet">
<metadata>
Created by potrace 1.14, written by Peter Selinger 2001-2017
</metadata>
<g transform="translate(0.000000,260.000000) scale(0.100000,-0.100000)"
fill="#000000" stroke="none">
<path d="M561 1934 c-16 -21 -21 -41 -21 -90 0 -112 30 -140 146 -132 91 6
104 22 104 129 0 109 -11 119 -124 119 -79 0 -86 -2 -105 -26z"/>
<path d="M1094 1933 c-32 -23 -34 -52 -34 -643 0 -591 2 -621 34 -642 6 -4 43
-8 82 -8 108 0 104 -9 104 268 l0 232 138 0 137 0 133 -235 c73 -129 143 -241
155 -250 15 -10 46 -15 99 -15 68 0 79 3 92 22 9 12 16 29 16 37 0 7 -58 116
-130 241 -71 125 -130 230 -130 234 0 3 17 14 38 25 118 60 189 171 199 311
13 198 -67 329 -248 403 -51 21 -71 22 -364 25 -170 1 -315 -1 -321 -5z m633
-232 c97 -56 113 -215 29 -289 -56 -49 -93 -56 -291 -57 l-180 0 -3 188 -2
188 202 -3 c194 -3 205 -4 245 -27z"/>
<path d="M581 1594 c-21 -26 -21 -37 -21 -470 0 -520 -8 -484 108 -484 110 0
102 -38 102 488 0 528 8 492 -104 492 -58 0 -67 -3 -85 -26z"/>
</g>
</svg>
